# xmcd CD database file
#
# Track frame offsets:
#	150
#	19687
#	34745
#	52850
#	68725
#	83555
#	97655
#	112127
#	127450
#	146547
#	164137
#	179130
#	195195
#	211952
#
# Disc length: 3065 seconds
#
# Revision: 0
# Processed by: cddbd v1.5.1PL2 Copyright (c) Steve Scherf et al.
# Submitted via: CDex 1.51
#
DISCID=c30bf70e
DTITLE=Various Artist - Spotlight On Hits COUNTRY Vol III
DYEAR=1900
DGENRE=Country
TTITLE0=Reba McEntire - For My Broken Heart
TTITLE1=Ricky Van Shelton - After The Lights Go Out
TTITLE2=Vince Gill - Look At Us
TTITLE3=Doug Stone - A Jukebox And A Country Song
TTITLE4=Billy Dean - You Don't Count The Cost
TTITLE5=Mark Chesnutt - Broken Promise Land
TTITLE6=Dolly Parton - Eagle When She Flies
TTITLE7=Mike Reid - I'll Stop Loving You
TTITLE8=Diamond Rio - Mama Don't Forget To Pray For Me
TTITLE9=Collin Raye - Love Me
TTITLE10=Mary Chapin Carpenter - Going Out Tonight
TTITLE11=Hal Ketchum - I Know Where Love Lives
TTITLE12=kelly WIllis - Settle For Love
TTITLE13=Pam Tillis - Maybe It Was Memphis
EXTD=
EXTT0=
EXTT1=
EXTT2=
EXTT3=
EXTT4=
EXTT5=
EXTT6=
EXTT7=
EXTT8=
EXTT9=
EXTT10=
EXTT11=
EXTT12=
EXTT13=
PLAYORDER=
